<?xml version="1.0" standalone="no"?>
<!DOCTYPE svg PUBLIC "-//W3C//DTD SVG 20010904//EN"
 "http://www.w3.org/TR/2001/REC-SVG-20010904/DTD/svg10.dtd">
<svg version="1.0" xmlns="http://www.w3.org/2000/svg"
 width="500.000000pt" height="500.000000pt" viewBox="0 0 500.000000 500.000000"
 preserveAspectRatio="xMidYMid meet">
<metadata>
Created by potrace 1.14, written by Peter Selinger 2001-2017
</metadata>
<g transform="translate(0.000000,500.000000) scale(0.100000,-0.100000)"
fill="#000000" stroke="none">
<path d="M2305 4994 c-519 -53 -924 -208 -1322 -505 -126 -94 -378 -346 -472
-472 -264 -354 -420 -727 -488 -1167 -24 -161 -24 -539 0 -700 68 -440 224
-813 488 -1167 94 -126 346 -378 472 -472 352 -263 730 -421 1167 -488 161
-24 539 -24 700 0 441 68 813 224 1170 490 123 93 375 345 469 470 263 352
421 730 488 1167 24 161 24 539 0 700 -68 440 -224 813 -488 1167 -94 126
-346 378 -472 472 -351 262 -729 421 -1157 486 -101 15 -468 28 -555 19z
m-230 -1394 c395 -45 624 -264 625 -596 0 -96 -26 -207 -69 -291 -141 -281
-562 -433 -1256 -456 l-70 -2 2 -58 c4 -114 52 -202 142 -261 82 -55 146 -70
286 -69 184 1 396 52 599 146 43 21 80 37 81 37 2 0 -10 -60 -25 -132 -15 -73
-38 -182 -50 -242 l-23 -109 -71 -32 c-227 -105 -557 -161 -797 -137 -158 16
-227 35 -354 97 -220 107 -343 265 -407 523 -30 118 -32 370 -4 517 53 284
174 523 360 709 272 272 641 400 1031 356z m1960 -15 c97 -15 291 -58 300 -67
5 -5 -91 -478 -99 -486 -3 -3 -32 7 -63 21 -217 96 -479 126 -596 68 -91 -44
-129 -144 -89 -234 24 -53 72 -92 212 -168 52 -28 128 -70 169 -93 41 -22 109
-74 152 -114 101 -95 151 -188 169 -317 20 -139 2 -249 -62 -385 -96 -200
-318 -342 -623 -395 -185 -33 -469 -24 -700 21 -65 13 -233 60 -242 68 -1 1
19 112 46 247 36 183 52 244 62 242 8 -1 50 -17 94 -37 271 -119 574 -149 712
-70 119 68 115 232 -9 320 -23 17 -99 59 -167 94 -164 83 -255 146 -329 225
-108 115 -149 236 -139 418 19 363 293 605 743 657 101 11 330 4 459 -15z"/>
<path d="M1780 3166 c-184 -41 -336 -201 -410 -430 -12 -37 -19 -70 -16 -73
12 -12 320 16 405 37 105 26 212 81 257 134 44 51 68 131 59 194 -10 66 -70
125 -143 141 -64 13 -81 13 -152 -3z"/>
</g>
</svg>
